<?xml version="1.0" standalone="no"?>
<!DOCTYPE svg PUBLIC "-//W3C//DTD SVG 20010904//EN"
 "http://www.w3.org/TR/2001/REC-SVG-20010904/DTD/svg10.dtd">
<svg version="1.0" xmlns="http://www.w3.org/2000/svg"
 width="700.000000pt" height="450.000000pt" viewBox="0 0 700.000000 450.000000"
 preserveAspectRatio="xMidYMid meet">

<g transform="translate(0.000000,450.000000) scale(0.100000,-0.100000)"
fill="#000000" stroke="none">
<path d="M5008 3643 c-2 -16 0 -46 5 -67 13 -66 14 -66 -148 -66 l-145 0 0
-279 0 -279 99 -4 c86 -3 103 -7 139 -30 59 -40 91 -77 107 -128 13 -40 14 0
12 390 -3 456 -6 490 -46 490 -14 0 -21 -8 -23 -27z"/>
<path d="M2495 3570 c-3 -5 -2 -10 4 -10 5 0 13 5 16 10 3 6 2 10 -4 10 -5 0
-13 -4 -16 -10z"/>
<path d="M2530 3560 c-9 -6 -10 -10 -3 -10 6 0 15 5 18 10 8 12 4 12 -15 0z"/>
<path d="M2580 3566 c0 -2 8 -10 18 -17 15 -13 16 -12 3 4 -13 16 -21 21 -21
13z"/>
<path d="M1940 3492 c-24 -19 -23 -1 -29 -520 l-1 -74 -76 7 -76 8 7 -24 c12
-39 23 -46 80 -54 30 -3 58 -11 61 -17 7 -11 14 -1219 7 -1231 -3 -4 -22 8
-44 28 -37 33 -41 34 -63 20 -15 -10 -42 -15 -80 -13 -67 3 -69 1 -90 -95 -19
-85 -20 -88 -2 -81 8 3 17 0 21 -5 3 -6 10 -9 15 -6 20 12 22 -70 5 -149 -10
-45 -20 -123 -23 -173 -4 -81 -3 -93 13 -99 17 -7 162 10 172 20 12 12 15 212
5 290 -12 85 1 205 23 213 6 2 20 -5 32 -16 25 -24 33 -18 33 23 0 36 99 194
111 175 4 -6 16 -9 28 -6 18 4 23 -5 47 -75 17 -51 24 -90 20 -109 l-5 -29
494 0 494 0 3 -127 c4 -178 -9 -304 -33 -321 -23 -16 -24 -29 -3 -34 12 -2 17
-20 20 -73 3 -38 10 -72 15 -76 10 -6 145 14 153 22 2 2 6 31 9 64 4 33 6 61
7 63 1 6 560 1 560 -5 0 -5 -6 -40 -14 -79 -7 -39 -14 -137 -15 -217 -2 -137
-1 -147 16 -147 17 0 21 17 37 133 17 116 52 246 83 302 7 12 14 -30 22 -141
22 -302 21 -294 42 -294 14 0 19 7 19 29 0 50 29 412 40 491 5 41 12 117 15
169 3 52 7 96 9 98 11 12 15 -81 6 -146 -6 -41 -9 -75 -8 -76 11 -9 47 -14 52
-7 3 5 10 50 16 100 14 116 -5 250 -42 289 -21 23 -97 69 -102 61 -1 -2 -12
-47 -25 -100 -13 -54 -24 -98 -26 -98 -1 0 -13 42 -25 93 -13 50 -26 95 -29
99 -4 4 -20 4 -36 0 -22 -6 -36 -21 -55 -58 -14 -27 -38 -70 -54 -96 l-30 -46
-85 -13 c-81 -13 -86 -15 -86 -39 0 -25 1 -25 70 -22 126 5 142 10 174 53 l29
40 6 -58 c3 -32 5 -78 5 -103 0 -25 2 -65 6 -90 3 -25 2 -58 -3 -75 l-8 -30
-190 3 c-104 1 -230 5 -280 8 l-91 6 -12 118 c-12 110 -9 180 7 180 15 0 32
41 24 58 -50 102 -44 96 -92 96 -43 1 -45 2 -48 34 -2 22 -12 38 -29 49 -25
16 -25 20 -20 92 5 62 10 79 26 90 19 12 21 24 21 115 0 55 -3 178 -6 271 l-7
170 -146 -3 -145 -3 22 24 c33 35 27 40 -7 6 -27 -26 -36 -29 -95 -29 -58 0
-69 3 -99 30 -23 20 -38 45 -46 74 -7 30 -11 215 -11 565 l0 521 -334 0 c-306
0 -336 -1 -356 -18z"/>
<path d="M1711 2891 c-10 -7 -8 -12 10 -25 32 -22 37 -20 31 9 -5 26 -17 31
-41 16z"/>
<path d="M1618 2815 c-42 -41 -55 -60 -51 -75 3 -11 10 -20 17 -20 17 0 76 38
76 49 0 5 17 20 38 32 20 12 39 24 42 26 6 6 -42 42 -55 43 -6 0 -36 -25 -67
-55z"/>
<path d="M4710 2733 c-128 -46 -224 -148 -259 -275 -20 -70 -10 -201 19 -262
20 -42 170 -213 170 -194 0 4 32 -4 72 -18 39 -13 88 -24 109 -24 21 0 50 -7
66 -15 15 -9 40 -20 55 -25 18 -6 40 -32 70 -82 24 -41 70 -113 103 -161 l60
-87 59 0 c47 0 57 3 52 15 -3 8 -48 87 -101 175 -52 89 -95 171 -95 183 2 68
63 188 92 179 5 -1 7 2 4 7 -3 5 1 24 8 43 8 19 20 65 26 101 31 173 -64 349
-227 425 -74 33 -212 41 -283 15z m265 -63 c100 -46 163 -122 191 -229 47
-187 -63 -368 -256 -417 -119 -30 -247 11 -333 106 -96 106 -114 250 -49 382
84 171 274 238 447 158z"/>
<path d="M3605 2640 c-4 -6 -11 -8 -16 -4 -5 3 -15 1 -22 -4 -7 -5 -29 -15
-49 -21 -47 -15 -68 -45 -67 -91 1 -36 27 -118 28 -89 1 9 8 30 17 47 15 31
18 32 79 32 35 0 70 3 78 6 10 4 21 -4 32 -23 16 -28 16 -27 10 32 -3 32 -12
66 -19 75 -7 8 -16 23 -19 33 -7 18 -42 23 -52 7z"/>
<path d="M2931 2514 c0 -11 3 -14 6 -6 3 7 2 16 -1 19 -3 4 -6 -2 -5 -13z"/>
<path d="M3152 2360 c0 -14 2 -19 5 -12 2 6 2 18 0 25 -3 6 -5 1 -5 -13z"/>
<path d="M3665 2269 c-13 -25 -14 -37 -5 -65 10 -29 15 -34 33 -29 30 9 101
58 100 70 0 12 -49 41 -85 49 -23 5 -30 2 -43 -25z"/>
<path d="M3422 2257 c-22 -13 -22 -14 -5 -29 50 -45 173 -86 173 -58 0 7 -21
33 -47 57 -50 45 -79 53 -121 30z"/>
<path d="M4610 1966 c0 -31 4 -35 49 -55 27 -11 58 -21 69 -21 25 0 46 25 38
46 -6 15 -9 14 -31 -6 -24 -22 -25 -23 -45 -5 -10 9 -26 15 -35 12 -11 -5 -15
1 -15 22 0 16 -7 31 -15 35 -11 4 -15 -2 -15 -28z"/>
<path d="M3337 1969 c7 -7 15 -10 18 -7 3 3 -2 9 -12 12 -14 6 -15 5 -6 -5z"/>
<path d="M4807 1911 c-6 -24 7 -46 22 -37 16 10 14 56 -3 56 -7 0 -16 -9 -19
-19z"/>
<path d="M5413 1855 c-30 -21 -53 -103 -53 -190 0 -62 3 -74 23 -93 33 -31 54
-27 72 12 31 65 75 54 81 -20 4 -63 4 -62 14 -39 16 36 11 83 -9 97 -14 10
-17 18 -10 28 14 23 11 127 -5 165 -22 53 -70 70 -113 40z"/>
<path d="M3914 1782 c-6 -10 -15 -33 -19 -52 -6 -29 -5 -33 6 -22 7 6 34 12
60 12 39 0 49 -4 54 -21 8 -24 14 -21 20 12 8 42 -4 58 -57 74 -29 8 -52 15
-52 15 -1 0 -6 -8 -12 -18z"/>
<path d="M5071 1663 c0 -10 4 -27 9 -38 7 -17 9 -15 9 12 1 17 -3 35 -9 38 -5
3 -10 -2 -9 -12z"/>
<path d="M3918 1643 c-22 -6 -22 -12 -2 -41 17 -25 32 -27 67 -11 30 14 55 59
32 59 -7 0 -17 -5 -21 -11 -4 -8 -9 -8 -17 0 -11 11 -28 12 -59 4z"/>
<path d="M4655 1581 c-3 -5 -2 -12 3 -15 5 -3 9 1 9 9 0 17 -3 19 -12 6z"/>
<path d="M5140 1556 c0 -2 8 -10 18 -17 15 -13 16 -12 3 4 -13 16 -21 21 -21
13z"/>
<path d="M5193 1528 c18 -28 53 -26 82 2 19 20 19 20 -39 20 l-58 0 15 -22z"/>
<path d="M5543 1410 c0 -30 2 -43 4 -27 2 15 2 39 0 55 -2 15 -4 2 -4 -28z"/>
<path d="M5555 1275 c5 -91 -7 -125 -45 -136 -22 -6 -21 -7 10 -8 61 -1 62 3
46 120 l-15 104 4 -80z"/>
<path d="M4220 1229 c0 -5 5 -7 10 -4 6 3 10 8 10 11 0 2 -4 4 -10 4 -5 0 -10
-5 -10 -11z"/>
<path d="M3413 1209 c-2 -23 3 -25 10 -4 4 8 3 16 -1 19 -4 3 -9 -4 -9 -15z"/>
<path d="M5435 1130 l-40 -7 43 -2 c23 0 42 4 42 9 0 6 -1 9 -2 9 -2 -1 -21
-5 -43 -9z"/>
<path d="M2662 997 c-52 -55 -10 -137 69 -137 l42 0 -20 23 c-11 12 -24 32
-27 44 -8 24 15 78 36 86 7 3 -8 6 -33 6 -35 1 -50 -4 -67 -22z"/>
<path d="M5765 800 c-30 -11 -42 -30 -50 -72 l-7 -38 116 0 116 0 0 25 c0 23
-4 25 -42 25 -37 0 -47 5 -71 35 -30 37 -31 38 -62 25z"/>
<path d="M1656 718 c-19 -27 -7 -43 27 -34 23 5 24 8 14 31 -15 31 -22 31 -41
3z"/>
<path d="M1773 723 c-3 -10 -8 -21 -10 -25 -2 -5 12 -8 31 -8 34 0 35 1 24 25
-13 29 -36 33 -45 8z"/>
<path d="M1033 593 c-27 -22 -43 -63 -43 -107 0 -26 5 -35 23 -40 35 -9 340
-7 356 3 12 8 12 14 2 40 -16 36 -65 57 -103 42 -21 -8 -32 -3 -76 31 -62 48
-123 60 -159 31z"/>
<path d="M3123 555 c-3 -9 -3 -19 0 -22 7 -6 166 -10 173 -4 2 2 -15 13 -38
24 -39 20 -41 20 -54 2 -12 -17 -15 -17 -38 -1 -31 20 -35 20 -43 1z"/>
<path d="M4757 549 c-9 -6 -14 -15 -11 -21 4 -7 2 -8 -5 -4 -27 17 -65 -42
-74 -116 l-7 -48 295 0 295 0 0 28 c0 56 -36 73 -141 65 l-74 -5 -63 56 -63
56 -67 0 c-37 0 -75 -5 -85 -11z"/>
<path d="M3770 543 c-39 -7 -49 -23 -14 -23 16 0 46 -3 67 -6 29 -5 37 -3 37
9 0 8 -10 17 -22 21 -24 6 -28 6 -68 -1z"/>
<path d="M4000 534 c0 -7 19 -13 50 -16 57 -3 65 6 18 20 -43 13 -68 12 -68
-4z"/>
</g>
</svg>
